<svg width="35" height="50" viewBox="0 0 35 50" fill="none" xmlns="http://www.w3.org/2000/svg">
<path d="M17.1616 50C7.69892 50 0 42.406 0 33.0733C0 22.1727 15.2553 1.50853 15.9038 0.632902C16.1983 0.238165 16.6588 0.00320339 17.1507 7.0564e-05C17.6973 -0.00462868 18.1077 0.225634 18.4069 0.615671C19.0633 1.47407 34.4799 21.7732 34.4799 33.0733C34.4799 42.4076 26.7105 50 17.1616 50ZM17.1789 4.23095C13.5369 9.40325 3.13283 24.8904 3.13283 33.0733C3.13283 40.6783 9.42668 46.8672 17.1616 46.8672C24.9827 46.8672 31.3471 40.6798 31.3471 33.0733C31.3471 24.5865 20.8646 9.3312 17.1789 4.23095Z" fill="#9966FF"/>
</svg>
