<svg width="440" height="440" viewBox="0 0 440 440" fill="none" xmlns="http://www.w3.org/2000/svg">
<path d="M91.9413 7.45876C185.99 -12.0412 291.923 19.9589 366.852 115.459C441.78 210.959 477.436 429.459 366.852 437.459C256.267 445.459 315.693 338.459 236.631 262.459C157.568 186.459 99.1758 252.459 55.2521 228.459C11.3285 204.459 2.02685 156.575 2.02699 103.959C2.02703 92.4586 -2.10701 26.9588 91.9413 7.45876Z" stroke="#5567C7" stroke-width="4"/>
<path d="M113.689 24.2912C196.948 7.02813 290.73 35.3574 357.063 119.902C423.396 204.447 454.961 397.881 357.063 404.964C259.164 412.046 311.773 317.32 241.78 250.039C171.787 182.757 120.094 241.186 81.2087 219.939C42.3238 198.693 34.0892 156.301 34.0893 109.721C34.0894 99.5403 30.4296 41.5542 113.689 24.2912Z" stroke="#5567C7" stroke-width="4"/>
<path d="M135.41 37.665C207.881 22.6388 289.511 47.2973 347.249 120.887C404.987 194.477 432.462 362.848 347.249 369.012C262.036 375.177 307.828 292.725 246.904 234.162C185.981 175.598 140.985 226.456 107.139 207.962C73.2921 189.469 66.1245 152.57 66.1246 112.025C66.1246 103.164 62.9391 52.6912 135.41 37.665Z" stroke="#5567C7" stroke-width="4"/>
<path d="M158.138 52.5802C219.821 39.7908 289.299 60.7786 338.442 123.414C387.585 186.049 410.97 329.355 338.442 334.602C265.914 339.849 304.889 269.671 253.035 219.826C201.18 169.98 162.883 213.267 134.075 197.526C105.267 181.786 99.1664 150.38 99.1664 115.871C99.1665 108.329 96.4551 65.3696 158.138 52.5802Z" stroke="#5567C7" stroke-width="4"/>
<path d="M180.893 67.954C231.787 57.4015 289.114 74.7185 329.662 126.399C370.21 178.079 389.505 296.321 329.662 300.651C269.819 304.98 301.977 247.076 259.192 205.949C216.407 164.821 184.808 200.537 161.038 187.549C137.269 174.562 132.235 148.649 132.235 120.176C132.235 113.952 129.998 78.5066 180.893 67.954Z" stroke="#5567C7" stroke-width="4"/>
</svg>
