<?xml version="1.0" encoding="UTF-8" standalone="no"?>
<!-- Created with Inkscape (http://www.inkscape.org/) -->

<svg
   width="40"
   height="40"
   viewBox="0 0 10.583333 10.583334"
   version="1.1"
   id="svg5"

   xmlns="http://www.w3.org/2000/svg"
   xmlns:svg="http://www.w3.org/2000/svg">
    <circle
       style="fill:#000000;stroke:#000000;stroke-width:0;stroke-miterlimit:4;stroke-dasharray:none"
       id="path1996"
       cx="5.2916665"
       cy="5.2916665"
       r="5.291666" />
    <path
       d="m 5.1886109,8.6564404 c -1.4020541,0 -2.5427776,-1.1251776 -2.5427776,-2.5079728 0,-1.6151057 2.260327,-4.6768474 2.3564136,-4.8065866 0.043636,-0.058487 0.1118656,-0.0933 0.1847491,-0.093764 0.080988,-6.72e-4 0.1417953,0.033421 0.1861266,0.091211 0.097257,0.1271861 2.3814833,3.1348413 2.3814833,4.8091396 0,1.383032 -1.1511665,2.5079728 -2.565995,2.5079728 z m 0.00258,-6.7814483 C 4.651567,2.6413546 3.1100306,4.9360344 3.1100306,6.1484676 c 0,1.1268074 0.9325391,2.0437968 2.0785966,2.0437968 1.1588261,0 2.1018182,-0.916767 2.1018182,-2.0437968 0,-1.2574611 -1.553157,-3.5177884 -2.0992545,-4.2734755 z"
       fill="#9966ff"
       id="path832"
       style="stroke-width:0.148165" />
</svg>
