<svg width="425" height="440" viewBox="0 0 425 440" fill="none" xmlns="http://www.w3.org/2000/svg">
<path d="M335.932 432.421C244.929 451.921 142.427 419.921 69.9248 324.422C-2.57703 228.923 -37.0779 10.4237 69.9248 2.42372C176.928 -5.57623 119.426 101.423 195.928 177.423C272.43 253.422 328.931 187.423 371.433 211.422C413.934 235.422 422.934 283.306 422.934 335.922C422.934 347.422 426.934 412.921 335.932 432.421Z" stroke="#5567C7" stroke-width="4"/>
<path d="M314.888 415.589C234.325 432.852 143.582 404.523 79.3969 319.979C15.2122 235.435 -15.3309 42.0009 79.3969 34.9187C174.125 27.8365 123.22 122.561 190.945 189.843C258.671 257.124 308.691 198.695 346.317 219.942C383.942 241.188 391.91 283.58 391.91 330.159C391.91 340.34 395.451 398.326 314.888 415.589Z" stroke="#5567C7" stroke-width="4"/>
<path d="M293.871 402.215C223.747 417.241 144.761 392.583 88.8926 318.994C33.0246 245.404 6.43911 77.0344 88.8926 70.8699C171.346 64.7053 127.037 147.156 185.987 205.72C244.938 264.283 288.476 213.425 321.227 231.919C353.977 250.412 360.912 287.311 360.912 327.855C360.912 336.717 363.995 387.189 293.871 402.215Z" stroke="#5567C7" stroke-width="4"/>
<path d="M271.879 387.3C212.194 400.089 144.966 379.102 97.4145 316.467C49.8631 253.832 27.2352 110.527 97.4145 105.28C167.594 100.033 129.881 170.21 180.056 220.055C230.23 269.901 267.288 226.614 295.163 242.355C323.038 258.095 328.941 289.501 328.94 324.009C328.94 331.552 331.564 374.511 271.879 387.3Z" stroke="#5567C7" stroke-width="4"/>
<path d="M249.861 371.926C200.615 382.479 145.145 365.162 105.91 313.482C66.6755 261.802 48.0052 143.56 105.91 139.231C163.815 134.902 132.698 192.805 174.097 233.933C215.497 275.06 246.073 239.344 269.072 252.332C292.072 265.319 296.943 291.232 296.943 319.705C296.943 325.928 299.107 361.374 249.861 371.926Z" stroke="#5567C7" stroke-width="4"/>
</svg>
